<svg xmlns="http://www.w3.org/2000/svg" viewBox="0 0 126.37 161.37"><defs><style>.cls-1{fill:#cc1f3c;}.cls-2{fill:#ada323;}.cls-3{fill:#965b2f;}.cls-4{fill:#e2aa2d;}.cls-5{opacity:0.4;}.cls-6{fill:#fff;}.cls-7{opacity:0.16;}</style></defs><g id="Layer_2" data-name="Layer 2"><g id="OBJECTS"><path class="cls-1" d="M63.18,46.79c-75.75-10.33-70.58,53.37-49.92,87.8s49.92,25.83,49.92,25.83,29.27,8.6,49.93-25.83S138.93,36.46,63.18,46.79Z"/><path class="cls-2" d="M63.44,45.67s-4.21-30,21.45-31.7C84.89,14,87.84,37.83,63.44,45.67Z"/><path class="cls-3" d="M63.18,46.79,66.13,3.32A3.11,3.11,0,0,0,63,0h0a3.11,3.11,0,0,0-3.1,3.34Z"/><path class="cls-4" d="M63,74.42l-1.06,6.69-.69-4.4a65.35,65.35,0,0,1,0-20.23l.69-4.4L63,58.78A50.63,50.63,0,0,1,63,74.42Z"/><path class="cls-4" d="M52.19,99.05l-1.06,6.69-.69-4.39a64.81,64.81,0,0,1,0-20.24l.69-4.39,1.06,6.69A50.63,50.63,0,0,1,52.19,99.05Z"/><path class="cls-4" d="M45.91,74.07,45.29,78l-.41-2.59a38.36,38.36,0,0,1,0-11.91l.41-2.59.62,3.94A29.63,29.63,0,0,1,45.91,74.07Z"/><path class="cls-4" d="M70.79,77l-.63,3.94-.4-2.59a38.36,38.36,0,0,1,0-11.91l.4-2.59.63,3.94A29.63,29.63,0,0,1,70.79,77Z"/><path class="cls-4" d="M27.58,90.22l-1.06,6.69-.69-4.4a64.75,64.75,0,0,1,0-20.23l.69-4.4,1.06,6.69A50.7,50.7,0,0,1,27.58,90.22Z"/><path class="cls-4" d="M86,77.29l-1,6.69-.7-4.4a65.35,65.35,0,0,1,0-20.23l.7-4.4,1,6.69A50.09,50.09,0,0,1,86,77.29Z"/><path class="cls-4" d="M17.71,73.13l-.62,3.94-.4-2.59a37.76,37.76,0,0,1,0-11.91l.4-2.59.62,3.94A29.63,29.63,0,0,1,17.71,73.13Z"/><path class="cls-4" d="M35.38,68.42l-.62,3.94-.41-2.59a38.36,38.36,0,0,1,0-11.91l.41-2.59.62,3.94A29.63,29.63,0,0,1,35.38,68.42Z"/><path class="cls-4" d="M111.12,88.72l-1.05,6.7-.7-4.4a65.35,65.35,0,0,1,0-20.23l.7-4.4,1.05,6.69A50,50,0,0,1,111.12,88.72Z"/><path class="cls-4" d="M94,68.7l-.62,3.94L93,70.05a38.36,38.36,0,0,1,0-11.91l.41-2.59L94,59.49A29.63,29.63,0,0,1,94,68.7Z"/><path class="cls-4" d="M54.29,157.43l-.62,3.94-.41-2.59a38.36,38.36,0,0,1,0-11.91l.41-2.59.62,3.94A29.63,29.63,0,0,1,54.29,157.43Z"/><path class="cls-4" d="M66.71,148.89l-.62,3.94-.41-2.59a38.36,38.36,0,0,1,0-11.91l.41-2.59.62,3.94A29.63,29.63,0,0,1,66.71,148.89Z"/><path class="cls-4" d="M69.86,157.43l-.62,3.94-.41-2.59a38.36,38.36,0,0,1,0-11.91l.41-2.59.62,3.94A29.63,29.63,0,0,1,69.86,157.43Z"/><g class="cls-5"><circle class="cls-6" cx="97.02" cy="68.52" r="8.83"/><circle class="cls-6" cx="105.74" cy="86.81" r="4.42"/></g><g class="cls-7"><path d="M63.18,154c-22.38,5-42.84-24.4-43.68-67.16-.74-37.79,43.68-40,43.68-40-75.75-10.33-70.58,53.37-49.92,87.8s49.92,25.83,49.92,25.83,13.94,4.09,29.37-4.68A67.64,67.64,0,0,1,63.18,154Z"/></g></g></g></svg>