<svg xmlns="http://www.w3.org/2000/svg" viewBox="0 0 130.85 166.71"><defs><style>.cls-1{fill:#cc1f3c;}.cls-2{fill:#f4bd34;}.cls-3{opacity:0.16;}.cls-4{opacity:0.4;}.cls-5{fill:#fff;}.cls-6{fill:#ada323;}</style></defs><g id="Layer_2" data-name="Layer 2"><g id="OBJECTS"><path class="cls-1" d="M121.69,61.25c-19.61-29-48.77-20.2-55.5-17.66-6.72-2.54-35.88-11.37-55.5,17.66-22.29,33,23.89,79.18,23.89,79.18s18.1,24.72,30.94,26.14v.14c.21,0,.44-.06.66-.07s.46.07.67.07v-.14c12.84-1.42,30.94-26.14,30.94-26.14S144,94.23,121.69,61.25Z"/><path class="cls-2" d="M93.9,65.45h0A2.45,2.45,0,0,1,91.46,63V58.42A2.45,2.45,0,0,1,93.9,56h0a2.45,2.45,0,0,1,2.45,2.45V63A2.45,2.45,0,0,1,93.9,65.45Z"/><path class="cls-2" d="M83.33,78.49h0A2.45,2.45,0,0,1,80.88,76V71.46A2.45,2.45,0,0,1,83.33,69h0a2.45,2.45,0,0,1,2.44,2.45V76A2.44,2.44,0,0,1,83.33,78.49Z"/><path class="cls-2" d="M93.9,88.69h0a2.45,2.45,0,0,1-2.44-2.45V81.65a2.44,2.44,0,0,1,2.44-2.44h0a2.45,2.45,0,0,1,2.45,2.44v4.59A2.45,2.45,0,0,1,93.9,88.69Z"/><path class="cls-2" d="M83.33,101.73h0a2.45,2.45,0,0,1-2.45-2.45V94.69a2.45,2.45,0,0,1,2.45-2.44h0a2.44,2.44,0,0,1,2.44,2.44v4.59A2.45,2.45,0,0,1,83.33,101.73Z"/><path class="cls-2" d="M106.92,94.8h0a2.45,2.45,0,0,1-2.44-2.45V87.76a2.44,2.44,0,0,1,2.44-2.44h0a2.45,2.45,0,0,1,2.45,2.44v4.59A2.45,2.45,0,0,1,106.92,94.8Z"/><path class="cls-2" d="M96.35,107.84h0a2.45,2.45,0,0,1-2.45-2.45v-4.58a2.45,2.45,0,0,1,2.45-2.45h0a2.45,2.45,0,0,1,2.45,2.45v4.58A2.45,2.45,0,0,1,96.35,107.84Z"/><path class="cls-2" d="M106.92,118h0a2.44,2.44,0,0,1-2.44-2.44V111a2.45,2.45,0,0,1,2.44-2.45h0a2.45,2.45,0,0,1,2.45,2.45v4.59A2.45,2.45,0,0,1,106.92,118Z"/><path class="cls-2" d="M98.8,133.37h0a2.45,2.45,0,0,1-2.45-2.45v-4.58a2.44,2.44,0,0,1,2.45-2.45h0a2.44,2.44,0,0,1,2.44,2.45v4.58A2.45,2.45,0,0,1,98.8,133.37Z"/><path class="cls-2" d="M71.48,65.09h0A2.45,2.45,0,0,1,69,62.65V58.06a2.45,2.45,0,0,1,2.45-2.45h0a2.45,2.45,0,0,1,2.45,2.45v4.59A2.45,2.45,0,0,1,71.48,65.09Z"/><path class="cls-2" d="M60.91,78.13h0a2.45,2.45,0,0,1-2.45-2.44V71.1a2.45,2.45,0,0,1,2.45-2.45h0a2.45,2.45,0,0,1,2.44,2.45v4.59A2.44,2.44,0,0,1,60.91,78.13Z"/><path class="cls-2" d="M71.48,88.33h0A2.45,2.45,0,0,1,69,85.88V81.3a2.45,2.45,0,0,1,2.45-2.45h0a2.45,2.45,0,0,1,2.45,2.45v4.58A2.45,2.45,0,0,1,71.48,88.33Z"/><path class="cls-2" d="M60.91,101.37h0a2.45,2.45,0,0,1-2.45-2.45V94.34a2.45,2.45,0,0,1,2.45-2.45h0a2.45,2.45,0,0,1,2.44,2.45v4.58A2.45,2.45,0,0,1,60.91,101.37Z"/><path class="cls-2" d="M71.48,110.85h0A2.45,2.45,0,0,1,69,108.4v-4.58a2.45,2.45,0,0,1,2.45-2.45h0a2.45,2.45,0,0,1,2.45,2.45v4.58A2.45,2.45,0,0,1,71.48,110.85Z"/><path class="cls-2" d="M60.91,123.89h0a2.45,2.45,0,0,1-2.45-2.45v-4.58a2.45,2.45,0,0,1,2.45-2.45h0a2.45,2.45,0,0,1,2.44,2.45v4.58A2.44,2.44,0,0,1,60.91,123.89Z"/><path class="cls-2" d="M71.48,129.35h0A2.45,2.45,0,0,1,69,126.9v-4.59a2.45,2.45,0,0,1,2.45-2.44h0a2.45,2.45,0,0,1,2.45,2.44v4.59A2.45,2.45,0,0,1,71.48,129.35Z"/><rect class="cls-2" x="60.91" y="142.39" width="4.89" height="9.48" rx="2.45"/><path class="cls-2" d="M49.26,67.5h0a2.45,2.45,0,0,1-2.45-2.45V60.47A2.45,2.45,0,0,1,49.26,58h0a2.45,2.45,0,0,1,2.44,2.45v4.58A2.44,2.44,0,0,1,49.26,67.5Z"/><path class="cls-2" d="M38.68,80.54h0a2.44,2.44,0,0,1-2.44-2.44V73.51a2.45,2.45,0,0,1,2.44-2.45h0a2.45,2.45,0,0,1,2.45,2.45V78.1A2.45,2.45,0,0,1,38.68,80.54Z"/><path class="cls-2" d="M49.26,90.74h0a2.45,2.45,0,0,1-2.45-2.45V83.7a2.45,2.45,0,0,1,2.45-2.44h0A2.44,2.44,0,0,1,51.7,83.7v4.59A2.45,2.45,0,0,1,49.26,90.74Z"/><path class="cls-2" d="M38.68,103.78h0a2.45,2.45,0,0,1-2.44-2.45V96.75a2.44,2.44,0,0,1,2.44-2.45h0a2.45,2.45,0,0,1,2.45,2.45v4.58A2.45,2.45,0,0,1,38.68,103.78Z"/><path class="cls-2" d="M119.94,85.28h0a2.44,2.44,0,0,1-2.44-2.44V78.25a2.45,2.45,0,0,1,2.44-2.45h0a2.45,2.45,0,0,1,2.45,2.45v4.59A2.44,2.44,0,0,1,119.94,85.28Z"/><path class="cls-2" d="M106.92,58.52h0a2.45,2.45,0,0,1-2.44-2.45V51.48A2.44,2.44,0,0,1,106.92,49h0a2.45,2.45,0,0,1,2.45,2.44v4.59A2.45,2.45,0,0,1,106.92,58.52Z"/><path class="cls-2" d="M117.5,70.55h0a2.45,2.45,0,0,1-2.45-2.45V63.51a2.45,2.45,0,0,1,2.45-2.44h0a2.44,2.44,0,0,1,2.44,2.44V68.1A2.45,2.45,0,0,1,117.5,70.55Z"/><path class="cls-2" d="M106.92,78.85h0a2.45,2.45,0,0,1-2.44-2.45V71.82a2.44,2.44,0,0,1,2.44-2.45h0a2.45,2.45,0,0,1,2.45,2.45V76.4A2.45,2.45,0,0,1,106.92,78.85Z"/><path class="cls-2" d="M117.5,104h0a2.45,2.45,0,0,1-2.45-2.45V96.94a2.45,2.45,0,0,1,2.45-2.45h0a2.45,2.45,0,0,1,2.44,2.45v4.58A2.44,2.44,0,0,1,117.5,104Z"/><path class="cls-2" d="M73.93,143.57h0a2.45,2.45,0,0,1-2.45-2.45v-4.59a2.45,2.45,0,0,1,2.45-2.44h0a2.44,2.44,0,0,1,2.44,2.44v4.59A2.45,2.45,0,0,1,73.93,143.57Z"/><rect class="cls-2" x="88.22" y="109.67" width="4.89" height="9.48" rx="2.45"/><path class="cls-2" d="M60.91,55.62h0a2.45,2.45,0,0,1-2.45-2.45V48.58a2.45,2.45,0,0,1,2.45-2.44h0a2.44,2.44,0,0,1,2.44,2.44v4.59A2.45,2.45,0,0,1,60.91,55.62Z"/><path class="cls-2" d="M49.26,117.73h0a2.45,2.45,0,0,1-2.45-2.45v-4.59a2.45,2.45,0,0,1,2.45-2.44h0a2.44,2.44,0,0,1,2.44,2.44v4.59A2.45,2.45,0,0,1,49.26,117.73Z"/><path class="cls-2" d="M38.68,128.63h0a2.44,2.44,0,0,1-2.44-2.45V121.6a2.45,2.45,0,0,1,2.44-2.45h0a2.45,2.45,0,0,1,2.45,2.45v4.58A2.45,2.45,0,0,1,38.68,128.63Z"/><path class="cls-2" d="M49.26,138.83h0a2.45,2.45,0,0,1-2.45-2.45v-4.59a2.45,2.45,0,0,1,2.45-2.44h0a2.44,2.44,0,0,1,2.44,2.44v4.59A2.45,2.45,0,0,1,49.26,138.83Z"/><path class="cls-2" d="M85.38,55.62h0a2.45,2.45,0,0,1-2.45-2.45V48.58a2.45,2.45,0,0,1,2.45-2.44h0a2.45,2.45,0,0,1,2.45,2.44v4.59A2.45,2.45,0,0,1,85.38,55.62Z"/><path class="cls-2" d="M28.62,67.86h0a2.45,2.45,0,0,1-2.45-2.45V60.83a2.45,2.45,0,0,1,2.45-2.45h0a2.44,2.44,0,0,1,2.44,2.45v4.58A2.45,2.45,0,0,1,28.62,67.86Z"/><path class="cls-2" d="M18,80.9h0a2.44,2.44,0,0,1-2.44-2.45V73.87A2.45,2.45,0,0,1,18,71.42h0a2.45,2.45,0,0,1,2.45,2.45v4.58A2.45,2.45,0,0,1,18,80.9Z"/><path class="cls-2" d="M28.62,91.1h0a2.45,2.45,0,0,1-2.45-2.45V84.06a2.45,2.45,0,0,1,2.45-2.44h0a2.44,2.44,0,0,1,2.44,2.44v4.59A2.45,2.45,0,0,1,28.62,91.1Z"/><path class="cls-2" d="M18,104.14h0a2.45,2.45,0,0,1-2.44-2.45V97.1A2.44,2.44,0,0,1,18,94.66h0a2.45,2.45,0,0,1,2.45,2.44v4.59A2.45,2.45,0,0,1,18,104.14Z"/><path class="cls-2" d="M28.62,115.59h0a2.45,2.45,0,0,1-2.45-2.45v-4.58a2.45,2.45,0,0,1,2.45-2.45h0a2.45,2.45,0,0,1,2.44,2.45v4.58A2.45,2.45,0,0,1,28.62,115.59Z"/><path class="cls-2" d="M53.17,159.36h0a2.45,2.45,0,0,1-2.44-2.45v-4.59a2.44,2.44,0,0,1,2.44-2.44h0a2.45,2.45,0,0,1,2.45,2.44v4.59A2.45,2.45,0,0,1,53.17,159.36Z"/><path class="cls-2" d="M80.88,123.89h0a2.45,2.45,0,0,1-2.45-2.45v-4.58a2.45,2.45,0,0,1,2.45-2.45h0a2.45,2.45,0,0,1,2.45,2.45v4.58A2.45,2.45,0,0,1,80.88,123.89Z"/><path class="cls-2" d="M38.68,55.62h0a2.45,2.45,0,0,1-2.44-2.45V48.58a2.44,2.44,0,0,1,2.44-2.44h0a2.45,2.45,0,0,1,2.45,2.44v4.59A2.45,2.45,0,0,1,38.68,55.62Z"/><path class="cls-2" d="M66.19,166.64h0a2.45,2.45,0,0,1-2.44-2.45v-4.58a2.45,2.45,0,0,1,2.44-2.45h0a2.45,2.45,0,0,1,2.45,2.45v4.58A2.45,2.45,0,0,1,66.19,166.64Z"/><path class="cls-2" d="M80.88,156.61h0a2.45,2.45,0,0,1-2.45-2.45v-4.59a2.45,2.45,0,0,1,2.45-2.44h0a2.45,2.45,0,0,1,2.45,2.44v4.59A2.45,2.45,0,0,1,80.88,156.61Z"/><path class="cls-2" d="M88.22,141.12h0a2.45,2.45,0,0,1-2.45-2.45v-4.58a2.45,2.45,0,0,1,2.45-2.45h0a2.45,2.45,0,0,1,2.45,2.45v4.58A2.45,2.45,0,0,1,88.22,141.12Z"/><g class="cls-3"><path d="M27.36,81.19c1.26-37.34,38.83-37.6,38.83-37.6-6.72-2.54-35.88-11.37-55.5,17.66-22.29,33,23.89,79.18,23.89,79.18s18.1,24.72,30.94,26.14v.14c.21,0,.44-.06.66-.07s.46.07.67.07v-.14C72,166,78,161.69,83.33,156.73,51.63,155,26.34,111.33,27.36,81.19Z"/></g><g class="cls-4"><circle class="cls-5" cx="98.12" cy="59.87" r="10.29" transform="translate(-13.6 86.92) rotate(-45)"/><path class="cls-5" d="M113.43,81.18A5.15,5.15,0,1,1,108.28,76,5.14,5.14,0,0,1,113.43,81.18Z"/></g><path class="cls-6" d="M66.19,43.59,70.84,5.25A4.69,4.69,0,0,0,66.19,0h0a4.69,4.69,0,0,0-4.65,5.25Z"/><path class="cls-6" d="M66.19,43.59a56.51,56.51,0,0,1,37,.95c19.29,7.52,27.71-18.83,27.71-18.83s-8.95,10.37-22.57,4.48C108.28,30.19,80.63,9.88,66.19,43.59Z"/><path class="cls-6" d="M64.65,43.59a56.48,56.48,0,0,0-36.94.95C8.41,52.06,0,25.71,0,25.71s8.94,10.37,22.56,4.48C22.56,30.19,50.21,9.88,64.65,43.59Z"/></g></g></svg>